<?xml version="1.0" encoding="iso-8859-1"?>
<!-- Uploaded to: SVG Repo, www.svgrepo.com, Generator: SVG Repo Mixer Tools -->
<svg height="800px" width="800px" version="1.1" id="Layer_1" xmlns="http://www.w3.org/2000/svg" xmlns:xlink="http://www.w3.org/1999/xlink" 
	 viewBox="0 0 512.002 512.002" xml:space="preserve">
<path style="fill:#5195AF;" d="M256,70.81v370.383c102.278,0,185.191-82.914,185.191-185.191S358.278,70.81,256,70.81z"/>
<path style="fill:#88ACB5;" d="M392.17,256.002c0-93.254-60.965-168.851-136.17-168.851V70.81
	c-102.278,0-185.191,82.913-185.191,185.191S153.722,441.193,256,441.193v-16.34C331.205,424.853,392.17,349.255,392.17,256.002z"/>
<path style="fill:#FFCD9C;" d="M256,152.512v206.979c57.156,0,103.489-46.334,103.489-103.489S313.156,152.512,256,152.512z"/>
<path style="fill:#FFFFFF;" d="M326.809,256.002c0-57.156-31.703-103.489-70.809-103.489c-57.156,0-103.489,46.334-103.489,103.489
	S198.844,359.491,256,359.491C295.106,359.491,326.809,313.157,326.809,256.002z"/>
<g>
	<polygon style="fill:#C7E7EB;" points="296.325,8.172 215.392,8.172 210.555,60.348 256,87.055 301.146,60.193 	"/>
	<polygon style="fill:#C7E7EB;" points="109.272,52.245 52.043,109.474 85.518,149.788 136.537,136.538 149.466,85.621 	"/>
	<polygon style="fill:#C7E7EB;" points="8.17,215.677 8.17,296.61 60.346,301.447 87.053,256.002 60.192,210.855 	"/>
	<polygon style="fill:#C7E7EB;" points="52.244,402.73 109.472,459.958 149.786,426.483 136.536,375.464 85.619,362.536 	"/>
	<polygon style="fill:#C7E7EB;" points="215.675,503.831 296.608,503.831 301.445,451.655 256,424.949 210.854,451.81 	"/>
	<polygon style="fill:#C7E7EB;" points="402.728,459.758 459.957,402.529 426.482,362.215 375.463,375.465 362.534,426.382 	"/>
	<polygon style="fill:#C7E7EB;" points="503.83,296.327 503.83,215.393 451.654,210.557 424.947,256.002 451.808,301.148 	"/>
	<polygon style="fill:#C7E7EB;" points="459.756,109.273 402.528,52.045 362.214,85.52 375.464,136.539 426.38,149.467 	"/>
</g>
<path style="fill:#A7CBCF;" d="M256,54.471c111.126,0,201.532,90.406,201.532,201.532S367.126,457.535,256,457.535l-21.787-16.34
	L256,424.854c93.108,0,168.851-75.743,168.851-168.851S349.108,87.152,256,87.152l-21.787-16.34L256,54.471z"/>
<path style="fill:#B7D9DD;" d="M256,54.471v32.681c-93.108,0-168.851,75.743-168.851,168.851S162.892,424.854,256,424.854v32.681
	c-111.126,0-201.532-90.406-201.532-201.532S144.874,54.471,256,54.471z"/>
<path d="M504.584,207.258l-45.661-4.233c-4.877-18.675-12.319-36.538-22.179-53.247l29.299-35.286
	c2.696-3.246,2.475-8.012-0.509-10.997l-57.229-57.229c-2.984-2.982-7.749-3.203-10.997-0.509l-35.343,29.346
	c-16.72-9.835-34.593-17.249-53.279-22.1L304.46,7.416c-0.39-4.201-3.915-7.414-8.135-7.414h-80.933
	c-4.22,0-7.745,3.214-8.135,7.416l-4.233,45.661c-18.677,4.878-36.54,12.32-53.248,22.179L114.49,45.959
	c-3.246-2.697-8.012-2.474-10.997,0.509l-57.226,57.229c-2.984,2.984-3.204,7.75-0.509,10.997l29.346,35.343
	c-9.835,16.72-17.249,34.594-22.1,53.279l-45.589,4.227C3.214,207.931,0,211.457,0,215.677v80.649c0,4.22,3.214,7.745,7.416,8.135
	l45.589,4.227c4.851,18.685,12.265,36.56,22.1,53.278l-29.346,35.343c-2.696,3.246-2.475,8.012,0.509,10.997l57.227,57.229
	c2.984,2.983,7.75,3.204,10.997,0.509l35.285-29.299c16.708,9.861,34.571,17.302,53.248,22.179l4.233,45.661
	c0.389,4.202,3.915,7.416,8.135,7.416h80.933c4.22,0,7.745-3.214,8.135-7.416l4.227-45.589c18.686-4.851,36.56-12.265,53.279-22.1
	l35.343,29.346c3.247,2.697,8.012,2.474,10.997-0.509l57.229-57.229c2.984-2.985,3.204-7.75,0.508-10.997l-29.298-35.284
	c9.861-16.708,17.302-34.571,22.179-53.248l45.661-4.233c4.202-0.389,7.416-3.915,7.416-8.135v-81.217
	C512,211.173,508.786,207.647,504.584,207.258z M495.66,289.162l-44.034,4.082c-3.509,0.326-6.414,2.863-7.206,6.297
	c-4.829,20.907-13.107,40.782-24.605,59.068c-1.88,2.99-1.625,6.851,0.632,9.568l28.267,34.041l-46.695,46.695l-34.095-28.309
	c-2.715-2.254-6.568-2.511-9.557-0.637c-18.299,11.467-38.184,19.715-59.103,24.514c-3.439,0.79-5.983,3.697-6.308,7.209
	l-4.076,43.971H222.84l-4.082-44.034c-0.326-3.509-2.863-6.414-6.297-7.206c-20.907-4.829-40.782-13.107-59.068-24.605
	c-2.992-1.879-6.852-1.623-9.568,0.631l-34.043,28.268l-46.694-46.695l28.309-34.095c2.253-2.714,2.511-6.568,0.637-9.557
	c-11.467-18.299-19.715-38.184-24.513-59.103c-0.79-3.439-3.697-5.983-7.209-6.308l-43.972-4.076v-65.754l43.971-4.076
	c3.513-0.326,6.421-2.869,7.209-6.308c4.798-20.919,13.046-40.804,24.513-59.103c1.874-2.989,1.616-6.843-0.637-9.557
	l-28.309-34.095l46.694-46.695l34.044,28.268c2.718,2.257,6.579,2.511,9.568,0.631c18.285-11.498,38.158-19.775,59.067-24.605
	c3.434-0.793,5.971-3.698,6.297-7.206l4.083-44.034h66.037l4.076,43.97c0.326,3.513,2.869,6.421,6.308,7.209
	c20.919,4.799,40.804,13.047,59.103,24.514c2.989,1.873,6.843,1.614,9.557-0.637l34.095-28.309l46.695,46.695l-28.268,34.043
	c-2.256,2.717-2.511,6.578-0.631,9.568c11.498,18.288,19.776,38.16,24.605,59.067c0.793,3.434,3.698,5.971,7.206,6.297l44.034,4.083
	V289.162z"/>
<path d="M256,78.98c-97.61,0-177.021,79.411-177.021,177.021c0,40.906,14.339,80.832,40.377,112.425
	c2.87,3.482,8.019,3.974,11.503,1.109c3.482-2.87,3.977-8.019,1.109-11.503c-23.634-28.673-36.648-64.91-36.648-102.032
	c0-88.6,72.081-160.681,160.681-160.681s160.681,72.081,160.681,160.681S344.6,416.682,256,416.682
	c-37.122,0-73.359-13.015-102.032-36.648c-3.482-2.869-8.631-2.374-11.503,1.109c-2.869,3.483-2.374,8.632,1.109,11.503
	c31.594,26.038,71.52,40.377,112.425,40.377c97.61,0,177.021-79.411,177.021-177.021S353.61,78.98,256,78.98z"/>
<path d="M256,367.661c61.57,0,111.66-50.09,111.66-111.66S317.57,144.342,256,144.342s-111.66,50.09-111.66,111.66
	S194.43,367.661,256,367.661z M256,160.682c52.56,0,95.319,42.76,95.319,95.319S308.56,351.321,256,351.321
	s-95.319-42.76-95.319-95.319S203.44,160.682,256,160.682z"/>
<path d="M293.442,247.831c4.513,0,8.17-3.657,8.17-8.17v-16.34c0-4.513-3.657-8.17-8.17-8.17s-8.17,3.657-8.17,8.17v16.34
	C285.272,244.174,288.93,247.831,293.442,247.831z"/>
<path d="M218.558,247.831c4.513,0,8.17-3.657,8.17-8.17v-16.34c0-4.513-3.657-8.17-8.17-8.17s-8.17,3.657-8.17,8.17v16.34
	C210.387,244.174,214.044,247.831,218.558,247.831z"/>
<path d="M256,305.023c19.484,0,37.12-11.544,44.929-29.408c1.807-4.135-0.08-8.951-4.214-10.759
	c-4.133-1.809-8.951,0.079-10.759,4.214c-5.207,11.914-16.966,19.613-29.956,19.613c-12.991,0-24.749-7.698-29.956-19.613
	c-1.807-4.135-6.625-6.024-10.759-4.214c-4.134,1.807-6.021,6.623-4.214,10.759C218.88,293.479,236.516,305.023,256,305.023z"/>
</svg>